# xmcd CD database file
#
# Track frame offsets:
#	150
#	11561
#	23661
#	31167
#	41475
#	53705
#	66087
#	81018
#	91622
#	104921
#
# Disc length: 1559 seconds
#
# Revision: 0
# Processed by: cddbd v1.5.2PL0 Copyright (c) Steve Scherf et al.
# Submitted via: CDex 1.51
#
DISCID=6f06150a
DTITLE=Various Artist - Redneck Rebels
DYEAR=2005
DGENRE=Country
TTITLE0=George Jones/White Lightning
TTITLE1=Johnny Paycheck/Take This Job And Shove It
TTITLE2=Wille Nelson/I Gotta Get Drunk
TTITLE3=Faron Young/Live Fast, Love Hard, Die Young
TTITLE4=Hank Williams, Sr./Lost Highway
TTITLE5=Freddy Fender/Wasted Days And Wasted Nights
TTITLE6=Johnny Cash and Waylon Jennings/There Ain't No Good Chain Gang
TTITLE7=Webb Pierce/In The Jailhouse Now
TTITLE8=Hank Thompson/The Wild Side Of Life
TTITLE9=Flatt and Scruggs/Foggy Mountain Breakdown
EXTD=YEAR: 2005
EXTT0=
EXTT1=
EXTT2=
EXTT3=
EXTT4=
EXTT5=
EXTT6=
EXTT7=
EXTT8=
EXTT9=
PLAYORDER=
